<svg version="1.2" xmlns="http://www.w3.org/2000/svg" viewBox="0 0 500 500" width="500" height="500">
	<style>
		.s0 { opacity: .96;fill: #21611b } 
	</style>
	<path id="Path 0" fill-rule="evenodd" class="s0" d="m266.5 158.99c1.65-0.01 6.38 0.84 10.5 1.88 4.13 1.04 10.43 3.36 14 5.15 3.57 1.8 8.75 4.93 11.5 6.96 2.75 2.03 7.6 6.58 10.78 10.1 3.19 3.53 7.31 9.35 9.16 12.92 1.86 3.57 4.13 9.2 5.04 12.5 1.29 4.67 1.42 6.72 0.59 9.25-0.59 1.79-2.53 4.36-4.32 5.71-1.79 1.36-5.73 3.35-8.75 4.42-3.02 1.08-12.48 3.12-21 4.54-8.52 1.42-18.43 3.48-22 4.57-3.57 1.1-6.84 2-7.25 2-0.41 0.01-0.47-1-0.12-2.24 0.44-1.58-0.29-1.06-2.47 1.75-1.71 2.2-3.11 4.68-3.12 5.5-0.01 0.82 2.56 4.08 5.72 7.23 5.47 5.45 5.93 5.69 9.74 5.17 2.73-0.38 4.63-0.08 6 0.95 1.96 1.47 1.95 1.52-0.75 2.58-2.27 0.88-2.75 1.68-2.75 4.57 0 2.95 0.55 3.81 3.5 5.5 1.93 1.1 3.52 2.34 3.54 2.75 0.03 0.41-0.71 1.43-1.65 2.25-0.93 0.82-3.08 1.45-4.79 1.39-1.7-0.06-4.39-0.96-5.96-2-1.58-1.04-3.83-3.46-5-5.38-1.18-1.92-3.94-5.07-6.14-6.98-2.2-1.92-6.12-5.52-8.71-8.01-3.69-3.54-4.73-5.23-4.75-7.77-0.02-1.79 1.31-6.51 2.97-10.5 1.65-3.99 2.89-7.38 2.75-7.54-0.14-0.15-2.02 2.32-4.17 5.5-2.48 3.67-4.13 7.43-4.5 10.26-0.52 3.91-1.08 4.74-4.59 6.73-2.2 1.25-4.56 2.27-5.25 2.28-0.69 0.01-1.25-0.88-1.25-1.98 0-1.1-0.68-3.35-1.5-5-0.92-1.85-2.75-3.4-4.75-4.05-2.24-0.72-4.5-0.73-7.25-0.03-2.2 0.56-6.14 2.38-8.75 4.05-2.61 1.67-5.09 3.57-5.5 4.23-0.42 0.68-0.31 0.99 0.25 0.71 0.55-0.27 3.25-1.55 6-2.84 2.75-1.29 7.25-2.57 10-2.85 4.43-0.45 5.2-0.24 6.76 1.88 1.14 1.56 1.74 4.15 1.71 7.4-0.02 2.75-0.64 7.93-2.71 18l4.34 4c3.63 3.34 4.35 4.62 4.37 7.75 0.02 2.06-0.31 4.49-0.72 5.39-0.41 0.9-1.99 2.25-3.5 3-1.51 0.75-3.2 1.13-3.75 0.86-0.55-0.27-1-1.85-1-3.5q0-3-2.75-5.5c-1.51-1.38-3.2-2.49-3.75-2.47-0.55 0.02-1.81-0.77-2.81-1.75-1.62-1.6-1.7-2.6-0.81-9.78 0.54-4.4 0.75-8.23 0.46-8.5-0.28-0.27-1.64 0.85-3.02 2.5-1.37 1.65-3.35 4.8-4.39 7-1.22 2.6-1.9 6.28-1.93 10.5-0.02 3.57 0.68 8.52 1.56 11 0.88 2.48 3.02 6.52 4.76 9 1.75 2.48 4.3 5.64 5.67 7.03 1.38 1.39 4.54 3.9 7.01 5.57 2.47 1.67 6.97 4.1 10 5.41 4.19 1.8 7.88 2.47 15.5 2.8 8.05 0.34 11.66 0 18.5-1.77 4.68-1.2 11.88-3.94 16-6.07 4.13-2.13 10.62-6.49 14.43-9.67 3.81-3.19 9.32-8.95 12.25-12.8 2.93-3.85 6.82-10.15 8.66-14 1.84-3.85 4.09-9.59 5-12.75 0.91-3.16 2-5.75 2.41-5.76 0.41-0.01 0.42 3.03 0.01 6.75-0.41 3.72-1.67 10.13-2.81 14.26-1.14 4.12-3.58 10.65-5.42 14.5-1.83 3.85-5.97 10.36-9.18 14.46-3.22 4.1-8.78 9.87-12.35 12.83-3.57 2.95-10.55 7.31-15.5 9.7-4.95 2.38-12.15 5.09-16 6.02-3.85 0.93-10.15 1.93-14 2.21-3.85 0.29-10.38-0.01-14.5-0.65-4.12-0.65-10.88-2.3-15-3.68-4.12-1.38-10.65-4.38-14.5-6.66-3.85-2.29-10.31-7.32-14.35-11.19-4.04-3.87-9.24-9.97-11.56-13.54-2.31-3.57-4.93-8.07-5.82-10-0.89-1.93-2.51-5.75-3.6-8.5-1.09-2.75-2.75-9.27-3.68-14.5-1.18-6.58-1.52-12.11-1.12-18 0.32-4.68 1.5-12.1 2.62-16.5 1.12-4.4 3.52-11.15 5.33-15 1.82-3.85 4.82-9.25 6.68-12 1.86-2.75 6.11-7.87 9.44-11.37 3.33-3.5 8.76-8.2 12.06-10.43 3.3-2.24 9.15-5.56 13-7.37 3.85-1.82 10.82-4.19 15.5-5.27 4.68-1.09 11.09-2.22 14.25-2.52 4.61-0.43 5.75-0.89 5.73-2.29-0.01-0.96 0.56-3.3 1.25-5.2 0.7-1.9 2.62-4.26 4.27-5.25 1.65-0.98 4.35-1.8 6-1.81zm16.22 25.82c-1.52 1.48-3.26 4.26-3.86 6.19-0.78 2.54-0.77 4.6 0.05 7.5 0.62 2.2 2.5 5.35 4.17 7 2.79 2.74 3.64 3 9.88 3 5.41 0 7.3-0.41 9.08-2 1.24-1.1 3.09-3.91 4.11-6.25 1.21-2.79 1.64-5.37 1.24-7.5-0.33-1.79-1.8-4.8-3.25-6.69-1.45-1.89-4.1-4.03-5.89-4.75-1.79-0.72-4.26-1.28-5.5-1.25-1.24 0.04-3.37 0.51-4.75 1.06-1.37 0.55-3.75 2.21-5.28 3.69zm0.03 52.27c0.69-0.05 1.46 0.48 1.72 1.17 0.25 0.69 2.95 2.94 6 5 3.04 2.06 7.44 4.18 9.78 4.71 2.34 0.53 4.82 1.76 5.52 2.75 0.69 0.98 1.26 2.8 1.25 4.04-0.01 1.24-0.47 2.48-1.02 2.75-0.55 0.27-2.46-0.38-4.25-1.46-2.72-1.64-3.82-1.78-6.75-0.91-3.22 0.97-4.05 0.72-10.5-3.16-3.85-2.31-8.04-5.17-9.3-6.34-1.42-1.31-2.12-2.88-1.83-4.09 0.29-1.2 1.94-2.43 4.3-3.17 2.11-0.67 4.39-1.25 5.08-1.29zm62 6c1.78-0.06 2.37 0.6 2.81 3.17 0.31 1.79 0.42 3.31 0.25 3.38-0.17 0.07-4.36 1.28-9.31 2.7-4.95 1.41-19.35 5.73-32 9.6-21.2 6.48-23.18 6.92-25.25 5.55-1.24-0.81-2.25-2.16-2.25-2.98 0-0.83 1.24-1.98 2.75-2.57 1.51-0.59 5.98-2.05 9.94-3.25 6.89-2.09 7.26-2.11 9-0.4 1.11 1.09 2.96 1.68 4.78 1.5 2.37-0.22 3.17-0.94 4-3.57 0.95-3.04 1.65-3.48 9.03-5.68 4.4-1.31 11.6-3.5 16-4.87 4.4-1.37 9.01-2.53 10.25-2.58zm-106 11.91c0.69 0.01 1.81 2.35 2.5 5.2 0.94 3.91 1.93 5.58 3.99 6.75 1.51 0.86 2.75 1.79 2.75 2.06 0 0.27-2.36 1.28-5.25 2.24-2.88 0.95-6.03 1.74-6.99 1.75q-1.75 0-2.87-3.74c-0.62-2.06-0.84-5.44-0.5-7.5 0.38-2.29 1.5-4.34 2.87-5.26 1.24-0.83 2.81-1.5 3.5-1.5zm71.41 8.09c0.37-0.05 0.59 0.66 0.5 1.56-0.09 0.91-1.28 2.53-2.66 3.6-1.92 1.51-3.14 1.77-5.25 1.11-1.51-0.47-2.75-1.3-2.74-1.85 0-0.55 2.14-1.75 4.75-2.67 2.61-0.92 5.04-1.71 5.4-1.75zm-48.66 5.01c1.27-0.05 2.65 1.1 3.77 3.17 0.98 1.78 1.66 3.32 1.5 3.43-0.15 0.1-6.44 2.12-27.68 8.81l-1.44-3.5c-0.8-1.93-1.22-3.73-0.94-4 0.27-0.27 5.51-2.15 11.64-4.16 6.13-2.02 12.05-3.7 13.15-3.75zm-7.25 13.03c0.41-0.06 0.74 0.44 0.72 1.13-0.02 0.69-0.58 2-1.25 2.91-0.67 0.91-2.34 2.07-3.72 2.58-1.37 0.51-3.58 0.67-4.91 0.35-1.33-0.33-2.56-1.15-2.75-1.84-0.21-0.76 1.93-1.99 5.41-3.13 3.16-1.03 6.09-1.93 6.5-2zm-38.75 1.93c1.1 0 3.46 0.9 5.25 1.98 1.79 1.08 3.14 2.49 3 3.11-0.14 0.63-1.82 1.73-3.75 2.43-1.93 0.7-4.51 1.31-5.75 1.35-1.85 0.07-2.36-0.59-2.85-3.67-0.42-2.63-0.2-3.97 0.75-4.48 0.74-0.41 2.25-0.73 3.35-0.72zm-39.75 13.01c0.14-0.03 1.15 1.74 2.25 3.94 1.89 3.77 1.9 4.05 0.25 4.91-0.96 0.5-6.47 2.75-12.25 4.99-5.78 2.25-10.72 4.1-11 4.12-0.28 0.02-1.18-1.77-2-3.97-0.82-2.2-1.28-4.2-1-4.45 0.28-0.24 5.68-2.47 12-4.96 6.32-2.48 11.61-4.54 11.75-4.58zm117.17-110.06c1.7 0 3.08 0.22 3.08 0.5 0 0.27-0.56 1.4-1.25 2.5-0.95 1.52-0.97 2.43-0.11 3.75 0.62 0.96 1.75 1.69 2.5 1.61 0.75-0.08 2.15-0.41 3.11-0.75 1.36-0.47 1.75-0.06 1.75 1.89 0 1.41-1.27 3.81-2.92 5.5-2 2.05-3.9 3-6 3-2.09 0-4.05-0.97-6.08-3-2.1-2.1-2.98-3.93-2.92-6.08 0.05-1.95 1.11-4.14 2.92-6 1.93-1.98 3.84-2.92 5.92-2.92z"/>
</svg>